<svg width="28" height="23" fill="none" xmlns="http://www.w3.org/2000/svg"><path fill-rule="evenodd" clip-rule="evenodd" d="M2.7 3.1c0-.5.3-.8.8-.8h20.4c.4 0 .8.3.8.8v17c0 .4-.4.8-.8.8H3.5c-.5 0-.8-.4-.8-.8v-17Zm1.5.7v15.6h19V3.8h-19Z" fill="#A6B0C3"/><path d="M10.9 10.3h1.4C12.1 9 11 8.1 9.5 8.1c-1.7 0-3.1 1.2-3.1 3.4 0 2 1.3 3.3 3.1 3.3 1.7 0 2.9-1 2.9-2.8v-.8H9.6v1.1H11c0 .8-.6 1.3-1.5 1.3-1 0-1.7-.8-1.7-2.2 0-1.3.7-2.1 1.7-2.1.7 0 1.2.4 1.4 1ZM15 8.2h-1.4v6.5H15V8.2Zm1.4 6.5h1.4V12h2.7v-1.1h-2.7V9.3h2.9V8.2h-4.3v6.5Z" fill="#A6B0C3"/></svg>