<svg width="25" height="25" fill="none" xmlns="http://www.w3.org/2000/svg"><path fill-rule="evenodd" clip-rule="evenodd" d="M3.8 12.5c0-4.8 3.9-8.7 8.7-8.7 4.7 0 8.6 3.9 8.6 8.7 0 4.7-3.9 8.6-8.6 8.6-4.8 0-8.7-3.9-8.7-8.6Zm8.7-10.2C6.9 2.3 2.3 6.9 2.3 12.5c0 5.5 4.6 10.1 10.2 10.1 5.5 0 10.1-4.6 10.1-10.1 0-5.6-4.6-10.2-10.1-10.2ZM8.6 12.4c.7 0 1.3-.5 1.3-1.2s-.6-1.3-1.3-1.3c-.7 0-1.3.6-1.3 1.3 0 .7.6 1.2 1.3 1.2ZM9 15c0 .9.4 1.8 1 2.4.7.7 1.5 1 2.4 1 1 0 1.8-.3 2.5-1 .6-.6 1-1.5 1-2.4H9Zm8.6-3.8c0 .7-.6 1.2-1.3 1.2-.7 0-1.3-.5-1.3-1.2s.6-1.3 1.3-1.3c.7 0 1.3.6 1.3 1.3Z" fill="#A6B0C3"/></svg>